# xmcd CD database file
#
# Track frame offsets:
#	150
#	17012
#	35680
#	57895
#	74815
#	87410
#	101747
#	115607
#	127020
#	145932
#
# Disc length: 2183 seconds
#
# Revision: 2
# Processed by: cddbd v1.4PL0 Copyright (c) Steve Scherf et al.
# Submitted via: CDex 1.40Beta9
#
DISCID=9108850a
DTITLE=Vince Gill - I Still Believe In You
DYEAR=1992
DGENRE=Country
TTITLE0=Don't Let Our Love Start Slippin' Away
TTITLE1=No Future In The Past
TTITLE2=Nothing Like A Woman
TTITLE3=Tryin' To Get Over You
TTITLE4=Say Hello
TTITLE5=One More Last Chance
TTITLE6=Under These Conditions
TTITLE7=Pretty Words
TTITLE8=Love Never Broke Anyone's Heart
TTITLE9=I Still Believe In You
EXTD=YEAR: 1992 ID3G: 2
EXTT0=
EXTT1=
EXTT2=
EXTT3=
EXTT4=
EXTT5=
EXTT6=
EXTT7=
EXTT8=
EXTT9=
PLAYORDER=
